<svg width="23" height="23" viewBox="0 0 23 23" fill="none" xmlns="http://www.w3.org/2000/svg">
<rect x="0.5" y="0.5" width="22" height="22" rx="7" fill="url(#paint0_linear_473_152)"/>
<path fill-rule="evenodd" clip-rule="evenodd" d="M10.4397 4.91041C10.721 4.64763 11.1025 4.5 11.5002 4.5C11.898 4.5 12.2794 4.64763 12.5607 4.91041L18.5608 10.5174C18.842 10.7803 19 11.1368 19 11.5085C19 11.8802 18.842 12.2366 18.5608 12.4995L12.5607 18.1065C12.2778 18.3619 11.8989 18.5031 11.5056 18.4999C11.1123 18.4968 10.7361 18.3493 10.458 18.0894C10.1799 17.8295 10.0221 17.478 10.0187 17.1104C10.0153 16.7429 10.1665 16.3888 10.4397 16.1244L13.8793 12.9102L5.50016 12.9187C5.10233 12.9187 4.72079 12.771 4.43948 12.5081C4.15817 12.2452 4 11.8802 4 11.5085C4 11.1367 4.15817 10.7886 4.43948 10.5257C4.72079 10.2629 5.10233 10.1152 5.50016 10.1152L13.8793 10.1067L10.4397 6.89249C10.1585 6.62962 10.0005 6.27315 10.0005 5.90145C10.0005 5.52976 10.1585 5.17328 10.4397 4.91041Z" fill="#5317A1"/>
<defs>
<linearGradient id="paint0_linear_473_152" x1="0.5" y1="22.5" x2="35.5" y2="11.5" gradientUnits="userSpaceOnUse">
<stop stop-color="#FCF8F7"/>
<stop offset="1" stop-color="#5317A1"/>
</linearGradient>
</defs>
</svg>
