<svg width="12" height="12" viewBox="0 0 12 12" fill="none" xmlns="http://www.w3.org/2000/svg">
<rect x="0.5" y="0.5" width="11" height="11" rx="5.5" fill="url(#paint0_linear_473_146)"/>
<g clip-path="url(#clip0_473_146)">
<path d="M4.03704 5.27559C4.02692 5.58526 4.18611 5.72239 4.19004 5.80948C4.18817 5.8272 4.18196 5.84424 4.17193 5.85915C4.1619 5.87406 4.14834 5.88642 4.13239 5.8952L3.95239 6.0177C3.92909 6.03358 3.90163 6.04268 3.87322 6.04395C3.86717 6.04368 3.75804 6.06897 3.58522 5.69381C3.47977 5.82178 3.34561 5.92459 3.19301 5.99438C3.0404 6.06417 2.87339 6.09908 2.70476 6.09645C2.47583 6.10862 1.85539 5.97012 1.88731 5.32796C1.86495 4.8046 2.36628 4.47948 2.88476 4.50696C2.98461 4.50723 3.18851 4.51202 3.54556 4.59268V4.37913C3.58339 4.01737 3.33884 3.73669 2.91542 3.7788C2.88167 3.77893 2.64261 3.77196 2.27079 3.91702C2.16729 3.96323 2.15408 3.95557 2.11962 3.95557C2.01542 3.95557 2.05831 3.6619 2.07828 3.62471C2.15154 3.53721 2.58256 3.37383 3.00556 3.37616C3.28839 3.35184 3.56971 3.4367 3.7887 3.61241C3.87772 3.70922 3.94564 3.82256 3.98834 3.9456C4.03105 4.06864 4.04767 4.19881 4.03718 4.32827L4.03704 5.27559ZM2.82176 5.71842C3.27781 5.712 3.47089 5.4454 3.5149 5.30184C3.5495 5.16444 3.54373 5.07749 3.54373 4.92723C3.40775 4.89551 3.212 4.86092 2.98742 4.86065C2.77437 4.84506 2.38526 4.93762 2.40045 5.30171C2.38301 5.53126 2.55683 5.731 2.82176 5.71842ZM5.22533 6.03356C5.11479 6.0434 5.06333 5.96712 5.04701 5.89178L4.3467 3.64071C4.33306 3.6027 4.32406 3.56346 4.3197 3.5234C4.31712 3.50689 4.32138 3.49005 4.33156 3.47659C4.34174 3.46313 4.357 3.45415 4.37398 3.45163C4.37736 3.45108 4.34403 3.45163 4.68687 3.45163C4.81034 3.4396 4.85056 3.53407 4.86336 3.5934L5.36567 5.51881L5.83198 3.5934C5.83943 3.54938 5.87333 3.44206 6.01198 3.4534H6.25329C6.28381 3.45094 6.40953 3.44657 6.43161 3.59518L6.90158 5.5452L7.42006 3.59518C7.42681 3.56538 7.45831 3.43973 7.59837 3.4534H7.87568C7.88764 3.45163 7.96217 3.44233 7.94951 3.57071C7.94347 3.596 7.99747 3.42497 7.20772 5.89356C7.19154 5.96889 7.13994 6.04518 7.0294 6.03534H6.76658C6.61273 6.05106 6.59065 5.90327 6.58826 5.88837L6.12195 4.01354L5.66098 5.88645C5.65873 5.90135 5.63665 6.04915 5.48267 6.03342H5.22533V6.03356ZM9.07114 6.11053C8.98845 6.11067 8.59414 6.10643 8.26451 5.94251C8.23168 5.92899 8.20371 5.9063 8.18416 5.87731C8.16461 5.84832 8.15435 5.81434 8.15469 5.77967V5.6327C8.15469 5.51717 8.24187 5.53837 8.27886 5.55217C8.42004 5.60768 8.51061 5.64979 8.684 5.68342C9.19939 5.78637 9.42608 5.65198 9.48162 5.62217C9.66654 5.5154 9.68117 5.27108 9.55545 5.14434C9.40808 5.02417 9.33776 5.01965 8.80831 4.85723C8.74306 4.8396 8.19378 4.67116 8.19251 4.14137C8.18393 3.75528 8.54478 3.37329 9.17014 3.37643C9.34831 3.3763 9.82306 3.4329 9.95159 3.58999C9.97058 3.61856 9.98 3.65219 9.97859 3.68624V3.82446C9.97859 3.88516 9.95581 3.91551 9.91011 3.91551C9.80168 3.90376 9.60931 3.7628 9.21879 3.76854C9.1219 3.76362 8.65784 3.78098 8.67865 4.10993C8.67261 4.36915 9.05286 4.46635 9.09631 4.47756C9.60903 4.62754 9.78045 4.65243 9.98393 4.88198C10.225 5.18618 10.095 5.54233 10.0451 5.63995C9.77679 6.15251 9.08295 6.11081 9.07114 6.11053ZM9.63645 7.54417C8.65165 8.25128 7.22206 8.62766 6.00143 8.62766C4.35444 8.63822 2.76295 8.04944 1.53983 6.97706C1.448 6.89653 1.529 6.7862 1.64065 6.84758C2.99747 7.60216 4.53367 7.99863 6.09678 7.99766C7.26407 7.99158 8.41862 7.76136 9.49414 7.32022C9.65979 7.25186 9.80028 7.42686 9.63645 7.54417ZM10.0469 7.08903C9.92094 6.93153 9.21331 7.01547 8.89648 7.05225C8.801 7.06278 8.78483 6.98225 8.87131 6.92278C9.43479 6.53764 10.3602 6.64797 10.4666 6.77745C10.5727 6.90692 10.4377 7.80844 9.91025 8.23911C9.82925 8.30569 9.75176 8.27055 9.78776 8.18305C9.90645 7.89253 10.1729 7.24667 10.0469 7.08903Z" fill="#5317A1"/>
</g>
<defs>
<linearGradient id="paint0_linear_473_146" x1="-2.43333" y1="8.2" x2="21.4" y2="2.33333" gradientUnits="userSpaceOnUse">
<stop stop-color="white"/>
<stop offset="1" stop-color="#5317A1"/>
</linearGradient>
<clipPath id="clip0_473_146">
<rect width="9" height="7" fill="white" transform="translate(1.5 2.5)"/>
</clipPath>
</defs>
</svg>
