<svg xmlns="http://www.w3.org/2000/svg" width="12" height="12" fill="none" viewBox="0 0 12 12"><rect width="11" height="11" x=".5" y=".5" fill="url(#paint0_linear_473_105)" rx="5.5"/><path fill="#5317A1" d="M6.00001 1.33333L6.24874 1.10809C6.18483 1.03922 6.09459 1 6.00001 1C5.90543 1 5.81519 1.03922 5.75128 1.10809L6.00001 1.33333ZM6.00001 10L5.73469 10.2059C5.79866 10.2864 5.89646 10.3333 6.00001 10.3333C6.10355 10.3333 6.20136 10.2864 6.26532 10.2059L6.00001 10ZM6.33743 11V1.33333H5.66259V11H6.33743ZM6.26532 9.79407L4.32374 7.35287L3.79311 7.76473L5.73469 10.2059L6.26532 9.79407ZM4.47304 3.47224L6.24874 1.55857L5.75128 1.10809L3.97559 3.02175L4.47304 3.47224ZM5.75128 1.55857L7.52696 3.47224L8.0244 3.02175L6.24874 1.10809L5.75128 1.55857ZM7.67627 7.35288L5.73469 9.79407L6.26532 10.2059L8.20688 7.76473L7.67627 7.35288ZM7.52696 3.47224C8.53181 4.55519 8.59504 6.1977 7.67627 7.35288L8.20688 7.76473C9.3298 6.35288 9.2526 4.34535 8.0244 3.02175L7.52696 3.47224ZM4.32374 7.35287C3.40499 6.1977 3.46818 4.55519 4.47304 3.47224L3.97559 3.02175C2.74742 4.34536 2.67018 6.35288 3.79311 7.76473L4.32374 7.35287Z"/><defs><linearGradient id="paint0_linear_473_105" x1=".5" x2="17" y1="11.5" y2=".5" gradientUnits="userSpaceOnUse"><stop stop-color="#fff"/><stop offset="1" stop-color="#5317A1"/></linearGradient></defs></svg>