<svg width="14" height="12" viewBox="0 0 14 12" fill="none" xmlns="http://www.w3.org/2000/svg">
<rect x="1.5" y="0.5" width="11" height="11" rx="5.5" fill="url(#paint0_linear_473_109)"/>
<g clip-path="url(#clip0_473_109)">
<path d="M6.94155 9.86087C6.89993 9.86087 6.85853 9.85014 6.8221 9.82929L6.44182 9.60698C6.38506 9.57557 6.4128 9.56448 6.4315 9.55803C6.50725 9.53205 6.52258 9.52605 6.60344 9.48076C6.61185 9.47608 6.62302 9.47786 6.63172 9.4829L6.92385 9.65428C6.93445 9.66008 6.94939 9.66008 6.95911 9.65428L8.09804 9.00476C8.10864 8.99879 8.11543 8.98673 8.11543 8.97431V7.67563C8.11543 7.66293 8.10861 7.65107 8.09775 7.64462L6.95931 6.99566C6.94882 6.98957 6.93482 6.98957 6.92422 6.99566L5.78606 7.64481C5.775 7.65107 5.76799 7.66332 5.76799 7.67563V8.97431C5.76799 8.98673 5.77497 8.9985 5.78595 9.00439L6.09795 9.1825C6.26723 9.26614 6.37086 9.16763 6.37086 9.06867V7.78642C6.37086 7.76831 6.38563 7.754 6.40396 7.754H6.54839C6.56646 7.754 6.5814 7.76831 6.5814 7.78642V9.06867C6.5814 9.29191 6.45835 9.41994 6.24417 9.41994C6.17834 9.41994 6.12651 9.41994 5.98183 9.34949L5.68317 9.1796C5.60942 9.13746 5.56372 9.05867 5.56372 8.97431V7.67563C5.56372 7.59126 5.60939 7.51248 5.68317 7.47053L6.8221 6.82025C6.89417 6.77997 6.98996 6.77997 7.06146 6.82025L8.2003 7.47053C8.27405 7.51267 8.31992 7.59126 8.31992 7.67563V8.97431C8.31992 9.05867 8.27405 9.13718 8.2003 9.1796L7.06146 9.82932C7.02505 9.85014 6.98374 9.86087 6.94155 9.86087Z" fill="#5317A1"/>
<path d="M7.29346 8.96597C6.79507 8.96597 6.69067 8.73994 6.69067 8.55034C6.69067 8.53231 6.70533 8.51791 6.7236 8.51791H6.87085C6.8873 8.51791 6.90101 8.5296 6.90358 8.54549C6.92581 8.6936 6.9921 8.76836 7.29349 8.76836C7.53342 8.76836 7.63557 8.71473 7.63557 8.58896C7.63557 8.51645 7.60663 8.46262 7.23374 8.42653C6.92214 8.39608 6.72939 8.32806 6.72939 8.08172C6.72939 7.85465 6.92308 7.71924 7.24785 7.71924C7.6127 7.71924 7.79325 7.84437 7.81611 8.11282C7.81697 8.12206 7.81366 8.13096 7.80742 8.13786C7.80118 8.14431 7.79248 8.14822 7.7833 8.14822H7.63548C7.62017 8.14822 7.60663 8.13749 7.60352 8.12282C7.56806 7.96696 7.48182 7.91715 7.24785 7.91715C6.98588 7.91715 6.95543 8.00732 6.95543 8.07487C6.95543 8.15673 6.99138 8.18056 7.34506 8.22682C7.69507 8.27251 7.86133 8.33727 7.86133 8.58031C7.86127 8.82552 7.65436 8.96597 7.29346 8.96597Z" fill="#5317A1"/>
<path d="M8.9358 7.60414C8.9358 7.72346 8.83708 7.82101 8.71632 7.82101C8.59666 7.82101 8.49683 7.72462 8.49683 7.60414C8.49683 7.48135 8.59906 7.38721 8.71632 7.38721C8.8348 7.38721 8.9358 7.48135 8.9358 7.60414ZM8.53226 7.60352C8.53226 7.70453 8.61471 7.78602 8.71572 7.78602C8.81795 7.78602 8.90042 7.70281 8.90042 7.60352C8.90042 7.50256 8.81684 7.42222 8.71572 7.42222C8.61585 7.42225 8.53226 7.50138 8.53226 7.60352ZM8.63384 7.48247H8.71868C8.7477 7.48247 8.80464 7.48247 8.80464 7.54676C8.80464 7.59152 8.77561 7.60067 8.75811 7.60642C8.79186 7.60873 8.79414 7.63053 8.79876 7.66152C8.80113 7.68101 8.80464 7.71431 8.81153 7.72577H8.75934C8.75811 7.71433 8.74998 7.65233 8.74998 7.64893C8.74659 7.63512 8.74186 7.62828 8.72447 7.62828H8.68153V7.72577H8.63387V7.48247H8.63384ZM8.68037 7.58918H8.71865C8.74996 7.58918 8.75583 7.5674 8.75583 7.55478C8.75583 7.52146 8.73256 7.52146 8.71979 7.52146H8.68037V7.58918Z" fill="#5317A1"/>
<path d="M3.41482 4.77955C3.41482 4.72769 3.38719 4.68003 3.34189 4.65434L2.1344 3.96772C2.11399 3.95586 2.0911 3.94969 2.06792 3.94873C2.06584 3.94873 2.05714 3.94873 2.05543 3.94873C2.03237 3.94966 2.00948 3.95583 1.98875 3.96772L0.781263 4.65434C0.736248 4.68003 0.708252 4.72769 0.708252 4.77955L0.710903 6.62842C0.710903 6.65411 0.724416 6.67805 0.747309 6.69065C0.769717 6.70391 0.797427 6.70391 0.81975 6.69065L1.53737 6.28462C1.58276 6.258 1.61038 6.21098 1.61038 6.1596V5.2958C1.61038 5.24431 1.63798 5.19665 1.68319 5.17107L1.98875 4.99718C2.01153 4.9842 2.03642 4.97783 2.06185 4.97783C2.08671 4.97783 2.11225 4.9842 2.13437 4.99718L2.43985 5.17107C2.48506 5.19667 2.51277 5.24434 2.51277 5.2958V6.1596C2.51277 6.21098 2.54077 6.25828 2.58587 6.28462L3.30329 6.69065C3.32578 6.70391 3.35389 6.70391 3.37622 6.69065C3.39845 6.67803 3.41245 6.65411 3.41245 6.62842L3.41482 4.77955Z" fill="#5317A1"/>
<path d="M9.22493 2.23812C9.20232 2.2257 9.17475 2.22598 9.15243 2.23891C9.13016 2.25187 9.11645 2.2755 9.11645 2.30105V4.13204C9.11645 4.15004 9.1067 4.16671 9.09096 4.17573C9.07517 4.18474 9.0557 4.18474 9.03988 4.17573L8.73746 4.00356C8.69233 3.97787 8.63682 3.97792 8.59172 4.00361L7.38375 4.69243C7.33859 4.71818 7.31079 4.76575 7.31079 4.81722V6.19514C7.31079 6.24663 7.33859 6.29418 7.38372 6.31998L8.59163 7.0093C8.63679 7.03505 8.69238 7.03505 8.73754 7.0093L9.94563 6.31998C9.99076 6.29421 10.0186 6.24663 10.0186 6.19514V2.76032C10.0186 2.70809 9.98996 2.6599 9.94375 2.63443L9.22493 2.23812ZM9.11286 5.7424C9.11286 5.75525 9.1059 5.76716 9.09461 5.77356L8.67987 6.00978C8.66861 6.01618 8.65472 6.01618 8.64346 6.00978L8.22872 5.77356C8.21743 5.76716 8.21047 5.75525 8.21047 5.7424V5.26919C8.21047 5.25635 8.21743 5.24443 8.22869 5.23798L8.64343 5.00128C8.65472 4.99483 8.66864 4.99483 8.67993 5.00128L9.09467 5.23798C9.10593 5.24443 9.11289 5.25635 9.11289 5.26919L9.11286 5.7424Z" fill="#5317A1"/>
<path d="M13.2472 5.25654C13.2921 5.23077 13.3198 5.18328 13.3198 5.13192V4.79801C13.3198 4.74666 13.2921 4.69914 13.2472 4.67336L12.047 3.98483C12.0018 3.95888 11.946 3.95885 11.9008 3.98463L10.6933 4.67344C10.6482 4.69919 10.6204 4.74674 10.6204 4.79823V6.17578C10.6204 6.22759 10.6485 6.27539 10.694 6.30099L11.894 6.97663C11.9383 7.00159 11.9925 7.00187 12.0371 6.97742L12.7629 6.5788C12.7859 6.56615 12.8003 6.54226 12.8004 6.51629C12.8006 6.49032 12.7866 6.46626 12.7638 6.4533L11.5486 5.76415C11.5259 5.7513 11.512 5.72742 11.512 5.70161V5.2699C11.512 5.24415 11.5259 5.22032 11.5485 5.20747L11.9267 4.99204C11.9492 4.97919 11.977 4.97919 11.9995 4.99204L12.3779 5.20747C12.4005 5.22032 12.4144 5.24415 12.4144 5.2699V5.60956C12.4144 5.63536 12.4283 5.65919 12.4509 5.67204C12.4735 5.68494 12.5014 5.68483 12.5239 5.6719L13.2472 5.25654Z" fill="#5317A1"/>
<path d="M11.9561 5.19219C11.9647 5.18724 11.9754 5.18724 11.984 5.19219L12.2158 5.32431C12.2245 5.32927 12.2298 5.33836 12.2298 5.34828V5.61273C12.2298 5.62265 12.2245 5.63174 12.2158 5.6367L11.984 5.76881C11.9754 5.77377 11.9647 5.77377 11.9561 5.76881L11.7244 5.6367C11.7158 5.63174 11.7104 5.62265 11.7104 5.61273V5.34828C11.7104 5.33836 11.7158 5.32927 11.7244 5.32431L11.9561 5.19219Z" fill="#5317A1"/>
<path d="M5.4354 3.99186C5.39052 3.96625 5.33522 3.96625 5.29037 3.99186L4.08919 4.67676C4.04426 4.70237 4.0166 4.74966 4.0166 4.80093V6.1718C4.0166 6.22302 4.04426 6.27031 4.08913 6.29597L5.29032 6.98144C5.33522 7.00704 5.39052 7.00704 5.43545 6.98144L6.63636 6.29597C6.68123 6.27034 6.70886 6.22302 6.70886 6.1718V4.80087C6.70886 4.74966 6.6812 4.70237 6.6363 4.67676L5.4354 3.99186Z" fill="#132EB9"/>
<mask id="mask0_473_109" style="mask-type:luminance" maskUnits="userSpaceOnUse" x="4" y="3" width="3" height="5">
<path d="M5.4354 3.99186C5.39052 3.96625 5.33522 3.96625 5.29037 3.99186L4.08919 4.67676C4.04426 4.70237 4.0166 4.74966 4.0166 4.80093V6.1718C4.0166 6.22302 4.04426 6.27031 4.08913 6.29597L5.29032 6.98144C5.33522 7.00704 5.39052 7.00704 5.43545 6.98144L6.63636 6.29597C6.68123 6.27034 6.70886 6.22302 6.70886 6.1718V4.80087C6.70886 4.74966 6.6812 4.70237 6.6363 4.67676L5.4354 3.99186Z" fill="white"/>
</mask>
<g mask="url(#mask0_473_109)">
<path d="M6.63864 4.67677L5.43409 3.99187C5.4222 3.98508 5.40949 3.98023 5.3964 3.97705L4.04395 6.26302C4.05561 6.27598 4.06926 6.28728 4.08443 6.29595L5.291 6.98142C5.32519 7.00091 5.36581 7.00547 5.40307 6.99528L6.67094 4.7013C6.66131 4.6919 6.6505 4.68353 6.63864 4.67677Z" fill="#5317A1"/>
</g>
<mask id="mask1_473_109" style="mask-type:luminance" maskUnits="userSpaceOnUse" x="4" y="3" width="3" height="5">
<path d="M5.4354 3.99186C5.39052 3.96625 5.33522 3.96625 5.29037 3.99186L4.08919 4.67676C4.04426 4.70237 4.0166 4.74966 4.0166 4.80093V6.1718C4.0166 6.22302 4.04426 6.27031 4.08913 6.29597L5.29032 6.98144C5.33522 7.00704 5.39052 7.00704 5.43545 6.98144L6.63636 6.29597C6.68123 6.27034 6.70886 6.22302 6.70886 6.1718V4.80087C6.70886 4.74966 6.6812 4.70237 6.6363 4.67676L5.4354 3.99186Z" fill="white"/>
</mask>
<g mask="url(#mask1_473_109)">
<path d="M6.63952 6.29619C6.67453 6.27619 6.70065 6.24293 6.71054 6.20498L5.3901 3.97602C5.35563 3.96924 5.31905 3.97439 5.28801 3.99211L4.09155 4.6729L5.38406 6.99949C5.4025 6.99701 5.42057 6.9911 5.43711 6.98169L6.63952 6.29619Z" fill="#5317A1"/>
<path d="M6.6395 6.29629L5.43709 6.98175C5.42055 6.99119 5.40248 6.99708 5.38403 6.99956L5.40798 7.04266L6.74353 6.2788V6.2608L6.71052 6.20508C6.70063 6.24302 6.67451 6.27626 6.6395 6.29629Z" fill="#132EB9"/>
<path d="M6.6395 6.29629L5.43709 6.98175C5.42055 6.99119 5.40248 6.99708 5.38403 6.99956L5.40798 7.04266L6.74353 6.2788V6.2608L6.71052 6.20508C6.70063 6.24302 6.67451 6.27626 6.6395 6.29629Z" fill="#5317A1"/>
</g>
</g>
<defs>
<linearGradient id="paint0_linear_473_109" x1="0.033333" y1="11.5" x2="18.7333" y2="0.500001" gradientUnits="userSpaceOnUse">
<stop stop-color="white"/>
<stop offset="1" stop-color="#5317A1"/>
</linearGradient>
<clipPath id="clip0_473_109">
<rect width="13" height="8" fill="white" transform="translate(0.5 2)"/>
</clipPath>
</defs>
</svg>
