<svg width="12" height="12" viewBox="0 0 12 12" fill="none" xmlns="http://www.w3.org/2000/svg">
<rect x="0.5" y="0.5" width="11" height="11" rx="5.5" fill="url(#paint0_linear_473_101)"/>
<path d="M5.59666 5.29706C5.45912 5.37653 5.34821 5.49504 5.27796 5.6376C5.20772 5.78016 5.18129 5.94037 5.20202 6.09796C5.22275 6.25555 5.28971 6.40345 5.39444 6.52296C5.49916 6.64246 5.63694 6.7282 5.79035 6.76934C5.94376 6.81048 6.10592 6.80516 6.25631 6.75406C6.4067 6.70296 6.53858 6.60838 6.63526 6.48227C6.73194 6.35616 6.78909 6.20419 6.79947 6.04558C6.80985 5.88697 6.773 5.72884 6.69358 5.59119C6.58708 5.40661 6.41169 5.27194 6.20598 5.21678C6.00027 5.16162 5.7811 5.1905 5.59666 5.29706ZM9.19586 6.16901C9.14314 6.10871 9.08751 6.04825 9.02897 5.98763C9.06986 5.94461 9.10943 5.90164 9.14767 5.85871C9.86971 5.04679 10.1744 4.23254 9.89208 3.74302C9.62132 3.27367 8.81591 3.1338 7.8076 3.33001C7.70829 3.34946 7.60952 3.3714 7.51129 3.39582C7.49249 3.33095 7.47249 3.26645 7.4513 3.20232C7.10923 2.17069 6.55668 1.49964 5.99192 1.5C5.45037 1.50025 4.92697 2.12869 4.59308 3.10087C4.56023 3.19678 4.52984 3.29348 4.50191 3.39099C4.43624 3.37486 4.37029 3.35997 4.30407 3.3463C3.24024 3.1277 2.38338 3.27168 2.10156 3.76147C1.83133 4.23116 2.11394 4.99889 2.78883 5.77392C2.85577 5.8506 2.92459 5.92557 2.99531 5.99881C2.91194 6.08476 2.833 6.17066 2.75941 6.25608C2.10088 7.02017 1.83443 7.77534 2.10422 8.24301C2.38286 8.72607 3.22765 8.88397 4.25591 8.68147C4.33924 8.66493 4.42211 8.64633 4.50452 8.62567C4.53471 8.73113 4.56782 8.83568 4.60387 8.93931C4.93629 9.89199 5.45675 10.5002 5.99638 10.5C6.55368 10.4997 7.11235 9.84621 7.45084 8.85357C7.47757 8.77512 7.50287 8.69366 7.52685 8.60978C7.63331 8.63629 7.74045 8.65981 7.84828 8.68034C8.83898 8.86793 9.62546 8.72039 9.89477 8.25239C10.1729 7.76897 9.88614 6.95818 9.19586 6.16901ZM2.43447 3.95332C2.60796 3.65182 3.30822 3.5342 4.22675 3.72292C4.28545 3.735 4.34516 3.7485 4.40587 3.76342C4.3162 4.16044 4.25292 4.56297 4.21646 4.96837C3.88503 5.20172 3.56905 5.45629 3.27048 5.73049C3.2047 5.6624 3.14067 5.59267 3.0784 5.52128C2.50014 4.85722 2.27161 4.23636 2.43447 3.95332ZM4.18204 6.53095C3.95248 6.35698 3.73913 6.17876 3.54549 5.99951C3.739 5.82136 3.95248 5.64374 4.18158 5.47024C4.17335 5.64698 4.16927 5.82386 4.16934 6.00088C4.16946 6.17763 4.1737 6.35433 4.18204 6.53095ZM4.18177 8.30422C3.79205 8.39095 3.38972 8.40516 2.99487 8.34614C2.88662 8.3377 2.78126 8.30714 2.68528 8.25634C2.58931 8.20554 2.50476 8.13559 2.43687 8.0508C2.27317 7.767 2.48712 7.1607 3.05031 6.5072C3.12112 6.4253 3.19425 6.34554 3.2697 6.26792C3.56831 6.54355 3.88481 6.79912 4.21713 7.03295C4.25409 7.44352 4.31811 7.85121 4.40877 8.25334C4.33354 8.27217 4.25787 8.28913 4.18177 8.30422ZM7.37469 4.68652C7.22388 4.59142 7.07121 4.49937 6.91668 4.41038C6.76462 4.32278 6.61072 4.23847 6.455 4.15745C6.72163 4.04525 6.98373 3.94942 7.23676 3.87134C7.2964 4.14057 7.34244 4.41264 7.37469 4.68652ZM4.95638 3.22584C5.24245 2.39283 5.66574 1.88461 5.99213 1.88447C6.33973 1.8843 6.79137 2.43268 7.08669 3.32339C7.10587 3.38146 7.124 3.43985 7.14109 3.49857C6.75311 3.619 6.37351 3.765 6.00479 3.93561C5.63761 3.763 5.2592 3.61537 4.87216 3.49374C4.89803 3.40376 4.92611 3.31446 4.95638 3.22584ZM4.77636 3.86654C5.04029 3.9497 5.29986 4.04612 5.55408 4.15544C5.23909 4.31813 4.93223 4.49534 4.63352 4.68707C4.66961 4.39997 4.71763 4.1249 4.77636 3.86654ZM4.63418 7.31384C4.78314 7.40928 4.93428 7.50119 5.0876 7.58957C5.244 7.67968 5.40247 7.76602 5.56303 7.84857C5.30686 7.96167 5.04506 8.06154 4.77867 8.14778C4.71925 7.88584 4.6707 7.60594 4.63418 7.31384ZM7.08724 8.72931C6.96762 9.11052 6.77892 9.46644 6.53055 9.77927C6.46918 9.86889 6.39007 9.94498 6.29816 10.0028C6.20625 10.0606 6.10347 10.099 5.99618 10.1154C5.66875 10.1156 5.25084 9.6272 4.96655 8.8125C4.93307 8.71618 4.90227 8.61898 4.87415 8.5209C5.26304 8.39534 5.64298 8.24354 6.01135 8.06654C6.3831 8.23825 6.76572 8.38534 7.15673 8.50687C7.13538 8.58156 7.11222 8.65571 7.08724 8.72931ZM7.25012 8.13342C6.99418 8.05422 6.72828 7.95678 6.4578 7.84294C6.61028 7.76263 6.76386 7.67781 6.91855 7.5885C7.07728 7.49676 7.23197 7.40273 7.38262 7.3064C7.35261 7.58416 7.30839 7.86019 7.25012 8.13342ZM7.45079 5.99922C7.45112 6.2725 7.44259 6.54557 7.42521 6.81841C7.20368 6.96846 6.96981 7.11496 6.72648 7.25556C6.48415 7.39558 6.24405 7.52425 6.00853 7.64071C5.76068 7.52184 5.51762 7.39374 5.27933 7.25641C5.04238 7.11991 4.81087 6.97456 4.58479 6.82036C4.56412 6.5476 4.55371 6.27434 4.55356 6.00059C4.55337 5.72703 4.5636 5.45384 4.58416 5.18085C4.80563 5.02948 5.0378 4.88309 5.27785 4.74439C5.51899 4.60503 5.7621 4.4769 6.00387 4.36078C6.24866 4.47984 6.48904 4.60744 6.725 4.74357C6.96178 4.87977 7.19394 5.02357 7.42148 5.17497C7.44102 5.4493 7.45077 5.72405 7.45079 5.99922ZM7.88097 3.70745C8.74486 3.53928 9.39623 3.65241 9.55941 3.93525C9.73324 4.23658 9.48411 4.90207 8.86076 5.60311C8.82631 5.64178 8.79055 5.68064 8.75353 5.71964C8.44979 5.44486 8.12772 5.1911 7.78953 4.96011C7.7554 4.55914 7.6945 4.16091 7.60722 3.76809C7.70024 3.74519 7.79149 3.72497 7.88097 3.70745ZM7.82257 5.45556C8.05068 5.62225 8.27 5.80066 8.47964 5.99009C8.27093 6.18263 8.0523 6.36412 7.82465 6.53382C7.83162 6.35565 7.83505 6.17739 7.83494 5.99904C7.83486 5.81784 7.83074 5.63668 7.82257 5.45556ZM9.5618 8.06049C9.39837 8.34452 8.7669 8.46295 7.91963 8.30252C7.82254 8.28418 7.72291 8.26234 7.62074 8.23702C7.70591 7.83914 7.76412 7.43596 7.79496 7.03023C8.13258 6.79521 8.45364 6.53722 8.75586 6.25808C8.80875 6.31307 8.85906 6.3678 8.90678 6.42227C9.17704 6.71637 9.39089 7.05771 9.53765 7.4293C9.58458 7.52727 9.61094 7.63383 9.61509 7.74239C9.61924 7.85096 9.60111 7.95922 9.5618 8.06049Z" fill="#5317A1"/>
<defs>
<linearGradient id="paint0_linear_473_101" x1="-1.7" y1="11.5" x2="15.9" y2="0.5" gradientUnits="userSpaceOnUse">
<stop stop-color="white"/>
<stop offset="1" stop-color="#5317A1"/>
</linearGradient>
</defs>
</svg>
